<?xml version="1.0" encoding="UTF-8" standalone="no"?>
<svg
   id="Layer_1"
   data-name="Layer 1"
   viewBox="0 0 33.099998 26.075382"
   version="1.1"
   sodipodi:docname="bricks-infused.svg"
   width="33.099998"
   height="26.07538"
   inkscape:version="1.3.2 (091e20e, 2023-11-25, custom)"
   xmlns:inkscape="http://www.inkscape.org/namespaces/inkscape"
   xmlns:sodipodi="http://sodipodi.sourceforge.net/DTD/sodipodi-0.dtd"
   xmlns:xlink="http://www.w3.org/1999/xlink"
   xmlns="http://www.w3.org/2000/svg"
   xmlns:svg="http://www.w3.org/2000/svg">
  <sodipodi:namedview
     id="namedview34"
     pagecolor="#ffffff"
     bordercolor="#000000"
     borderopacity="0.25"
     inkscape:showpageshadow="2"
     inkscape:pageopacity="0.0"
     inkscape:pagecheckerboard="0"
     inkscape:deskcolor="#d1d1d1"
     inkscape:zoom="23.079965"
     inkscape:cx="7.4523509"
     inkscape:cy="17.482695"
     inkscape:window-width="2560"
     inkscape:window-height="1351"
     inkscape:window-x="2391"
     inkscape:window-y="-9"
     inkscape:window-maximized="1"
     inkscape:current-layer="Layer_1" />
  <defs
     id="defs1">
    <linearGradient
       id="linearGradient5"
       inkscape:collect="always">
      <stop
         style="stop-color:#ae52de;stop-opacity:1;"
         offset="0"
         id="stop5" />
      <stop
         style="stop-color:#35a6cf;stop-opacity:1;"
         offset="1"
         id="stop6" />
    </linearGradient>
    <style
       id="style1">
      .cls-1 {
        fill-rule: evenodd;
      }

      .cls-1, .cls-2 {
        fill: #fff;
        stroke-width: 0px;
      }
    </style>
    <linearGradient
       inkscape:collect="always"
       xlink:href="#linearGradient5"
       id="linearGradient6"
       x1="8.0589371"
       y1="9.2721109"
       x2="32.149094"
       y2="20.840586"
       gradientUnits="userSpaceOnUse" />
  </defs>
  <g
     id="g5"
     style="fill:url(#linearGradient6);fill-opacity:1"
     inkscape:export-filename="..\g5.png"
     inkscape:export-xdpi="2784.29"
     inkscape:export-ydpi="2784.29">
    <path
       class="cls-1"
       d="m 15.41,14.984023 15.53,-4.31 c 1.15,-0.32 2.16,0.97 2.16,2.16 v 6.69 c 0,1.19 -1.03,1.84 -2.16,2.16 l -15.53,4.31 c -1.47,0.38 -2.16,-0.61 -2.16,-2.16 v -6.69 c 0,-1.19 0.9,-1.89 2.16,-2.16 z"
       id="path1"
       style="fill:url(#linearGradient6);fill-opacity:1.0" />
    <path
       class="cls-1"
       d="m 2.16,12.824023 6.9,2.16 c 1.19,0.27 2.16,0.97 2.16,2.16 v 6.69 c 0,1.19 -1.1,2.44 -2.16,2.16 l -6.9,-2.16 c -1.13,-0.25 -2.16,-0.97 -2.16,-2.16 v -6.69 c 0,-1.19 0.86,-2.42 2.16,-2.16 z"
       id="path2"
       style="fill:url(#linearGradient6);fill-opacity:1.0" />
    <path
       class="cls-1"
       d="M 22.51,0.06402344 15.3,2.0640234 c -1.45,0.38 -2.16,0.97 -2.16,2.16 v 6.6899996 c 0,1.19 0.94,2.53 2.16,2.16 l 7.21,-2 c 1.19,-0.36 2.16,-0.97 2.16,-2.1599996 v -6.69 c 0,-1.69999996 -0.99,-2.45999996 -2.16,-2.15999996 z"
       id="path3"
       style="fill:url(#linearGradient6);fill-opacity:1.0" />
  </g>
</svg>
