<?xml version="1.0" encoding="UTF-8" standalone="no"?>
<svg
   id="Layer_1"
   data-name="Layer 1"
   viewBox="0 0 33.099998 26.075382"
   version="1.1"
   sodipodi:docname="bricks-simple.svg"
   width="33.099998"
   height="26.07538"
   inkscape:version="1.3.2 (091e20e, 2023-11-25, custom)"
   xmlns:inkscape="http://www.inkscape.org/namespaces/inkscape"
   xmlns:sodipodi="http://sodipodi.sourceforge.net/DTD/sodipodi-0.dtd"
   xmlns="http://www.w3.org/2000/svg"
   xmlns:svg="http://www.w3.org/2000/svg">
  <sodipodi:namedview
     id="namedview34"
     pagecolor="#ffffff"
     bordercolor="#000000"
     borderopacity="0.25"
     inkscape:showpageshadow="2"
     inkscape:pageopacity="0.0"
     inkscape:pagecheckerboard="0"
     inkscape:deskcolor="#d1d1d1"
     inkscape:zoom="8.16"
     inkscape:cx="93.995098"
     inkscape:cy="-4.1053922"
     inkscape:window-width="2400"
     inkscape:window-height="1261"
     inkscape:window-x="-9"
     inkscape:window-y="154"
     inkscape:window-maximized="1"
     inkscape:current-layer="Layer_1" />
  <defs
     id="defs1">
    <style
       id="style1">
      .cls-1 {
        fill-rule: evenodd;
      }

      .cls-1, .cls-2 {
        fill: #fff;
        stroke-width: 0px;
      }
    </style>
  </defs>
  <path
     class="cls-1"
     d="m 15.41,14.984023 15.53,-4.31 c 1.15,-0.32 2.16,0.97 2.16,2.16 v 6.69 c 0,1.19 -1.03,1.84 -2.16,2.16 l -15.53,4.31 c -1.47,0.38 -2.16,-0.61 -2.16,-2.16 v -6.69 c 0,-1.19 0.9,-1.89 2.16,-2.16 z"
     id="path1"
     style="fill:#000000" />
  <path
     class="cls-1"
     d="m 2.16,12.824023 6.9,2.16 c 1.19,0.27 2.16,0.97 2.16,2.16 v 6.69 c 0,1.19 -1.1,2.44 -2.16,2.16 l -6.9,-2.16 c -1.13,-0.25 -2.16,-0.97 -2.16,-2.16 v -6.69 c 0,-1.19 0.86,-2.42 2.16,-2.16 z"
     id="path2"
     style="fill:#000000" />
  <path
     class="cls-1"
     d="M 22.51,0.06402344 15.3,2.0640234 c -1.45,0.38 -2.16,0.97 -2.16,2.16 v 6.6899996 c 0,1.19 0.94,2.53 2.16,2.16 l 7.21,-2 c 1.19,-0.36 2.16,-0.97 2.16,-2.1599996 v -6.69 c 0,-1.69999996 -0.99,-2.45999996 -2.16,-2.15999996 z"
     id="path3"
     style="fill:#000000" />
</svg>
