<?xml version="1.0" encoding="UTF-8" standalone="no"?>
<svg
   viewBox="0 0 239.01 239.01001"
   version="1.1"
   id="svg17"
   width="239.00999"
   height="239.00999"
   xmlns:xlink="http://www.w3.org/1999/xlink"
   xmlns="http://www.w3.org/2000/svg"
   xmlns:svg="http://www.w3.org/2000/svg">
  <defs
     id="defs1">
    <linearGradient
       id="linearGradient19">
      <stop
         style="stop-color:#ae52de;stop-opacity:1;"
         offset="0"
         id="stop19" />
      <stop
         style="stop-color:#35a6cf;stop-opacity:1;"
         offset="1"
         id="stop20" />
    </linearGradient>
    <linearGradient
       id="linearGradient17">
      <stop
         style="stop-color:#ae52de;stop-opacity:1;"
         offset="0"
         id="stop17" />
      <stop
         style="stop-color:#35a6cf;stop-opacity:1;"
         offset="1"
         id="stop18" />
    </linearGradient>
    <style
       id="style1">
      .cls-1 {
        fill: #232149;
      }

      .cls-2 {
        fill: #aa94f8;
      }

      .cls-3 {
        fill: #322488;
      }
    </style>
    <linearGradient
       xlink:href="#linearGradient17"
       id="linearGradient18"
       x1="0"
       y1="102.47"
       x2="239.01"
       y2="102.47"
       gradientUnits="userSpaceOnUse" />
    <linearGradient
       xlink:href="#linearGradient19"
       id="linearGradient20"
       x1="79.66"
       y1="182.14"
       x2="239"
       y2="182.14"
       gradientUnits="userSpaceOnUse" />
  </defs>
  <g
     id="Beeldmerk"
     transform="translate(0,-22.8)">
    <path
       class="cls-2"
       d="M 225.72,22.8 H 92.94 c -7.33,0 -13.28,5.94 -13.28,13.28 v 59.75 c 0,3.67 -2.97,6.64 -6.64,6.64 H 13.28 C 5.95,102.47 0,108.41 0,115.75 v 53.11 c 0,7.33 5.94,13.28 13.28,13.28 h 53.11 c 7.33,0 13.28,-5.94 13.28,-13.28 v -59.75 c 0,-3.67 2.97,-6.64 6.64,-6.64 h 139.42 c 7.33,0 13.28,-5.94 13.28,-13.28 V 36.08 c 0,-7.33 -5.94,-13.28 -13.28,-13.28 z"
       id="path1"
       style="fill:url(#linearGradient18);opacity:0.5" />
    <path
       class="cls-3"
       d="m 225.72,102.47 h -53.11 c -7.33,0 -13.28,5.94 -13.28,13.28 v 59.75 c 0,3.67 -2.97,6.64 -6.64,6.64 H 92.94 c -7.33,0 -13.28,5.94 -13.28,13.28 v 53.11 c 0,7.33 5.94,13.28 13.28,13.28 h 53.11 c 7.33,0 13.28,-5.94 13.28,-13.28 v -59.75 c 0,-3.67 2.97,-6.64 6.64,-6.64 h 59.75 c 7.33,0 13.28,-5.94 13.28,-13.28 v -53.11 c 0,-7.33 -5.94,-13.28 -13.28,-13.28 z"
       id="path2"
       style="fill:url(#linearGradient20)" />
  </g>
</svg>
