<?xml version="1.0" encoding="UTF-8" standalone="no"?>
<svg
   viewBox="0 0 239.01 239.01001"
   version="1.1"
   id="svg17"
   width="239.00999"
   height="239.00999"
   xmlns="http://www.w3.org/2000/svg"
   xmlns:svg="http://www.w3.org/2000/svg">
  <defs
     id="defs1">
    <style
       id="style1">
      .cls-1 {
        fill: #232149;
      }

      .cls-2 {
        fill: #aa94f8;
      }

      .cls-3 {
        fill: #322488;
      }
    </style>
  </defs>
  <g
     id="Beeldmerk"
     transform="translate(0,-22.8)">
    <path
       class="cls-2"
       d="M 225.72,22.8 H 92.94 c -7.33,0 -13.28,5.94 -13.28,13.28 v 59.75 c 0,3.67 -2.97,6.64 -6.64,6.64 H 13.28 C 5.95,102.47 0,108.41 0,115.75 v 53.11 c 0,7.33 5.94,13.28 13.28,13.28 h 53.11 c 7.33,0 13.28,-5.94 13.28,-13.28 v -59.75 c 0,-3.67 2.97,-6.64 6.64,-6.64 h 139.42 c 7.33,0 13.28,-5.94 13.28,-13.28 V 36.08 c 0,-7.33 -5.94,-13.28 -13.28,-13.28 z"
       id="path1" />
    <path
       class="cls-3"
       d="m 225.72,102.47 h -53.11 c -7.33,0 -13.28,5.94 -13.28,13.28 v 59.75 c 0,3.67 -2.97,6.64 -6.64,6.64 H 92.94 c -7.33,0 -13.28,5.94 -13.28,13.28 v 53.11 c 0,7.33 5.94,13.28 13.28,13.28 h 53.11 c 7.33,0 13.28,-5.94 13.28,-13.28 v -59.75 c 0,-3.67 2.97,-6.64 6.64,-6.64 h 59.75 c 7.33,0 13.28,-5.94 13.28,-13.28 v -53.11 c 0,-7.33 -5.94,-13.28 -13.28,-13.28 z"
       id="path2" />
  </g>
</svg>
